<svg viewBox="0 0 16 16" fill="none" xmlns="http://www.w3.org/2000/svg">
<path d="M9 7H15V16H9V7Z" fill="url(#paint0_linear_382_1202)"/>
<path d="M1 11.5C1 9.01472 3.01472 7 5.5 7H7V16H5.5C3.01472 16 1 13.9853 1 11.5Z" fill="url(#paint1_linear_382_1202)"/>
<path d="M15 3C15 4.65685 13.6569 6 12 6C10.3431 6 9 4.65685 9 3C9 1.34315 10.3431 0 12 0C13.6569 0 15 1.34315 15 3Z" fill="url(#paint2_linear_382_1202)"/>
<path d="M1.5 5.75C1.5 2.71243 3.96243 0.25 7 0.25V5.75H1.5Z" fill="url(#paint3_linear_382_1202)"/>
<defs>
<linearGradient id="paint0_linear_382_1202" x1="-0.53125" y1="-2.5" x2="15.3422" y2="9.5049" gradientUnits="userSpaceOnUse">
<stop offset="0.168292" stop-color="#0B64DD"/>
<stop offset="0.83" stop-color="#731DCF"/>
</linearGradient>
<linearGradient id="paint1_linear_382_1202" x1="-0.53125" y1="-2.5" x2="15.3422" y2="9.5049" gradientUnits="userSpaceOnUse">
<stop offset="0.168292" stop-color="#0B64DD"/>
<stop offset="0.83" stop-color="#731DCF"/>
</linearGradient>
<linearGradient id="paint2_linear_382_1202" x1="-0.53125" y1="-2.5" x2="15.3422" y2="9.5049" gradientUnits="userSpaceOnUse">
<stop offset="0.168292" stop-color="#0B64DD"/>
<stop offset="0.83" stop-color="#731DCF"/>
</linearGradient>
<linearGradient id="paint3_linear_382_1202" x1="-0.53125" y1="-2.5" x2="15.3422" y2="9.5049" gradientUnits="userSpaceOnUse">
<stop offset="0.168292" stop-color="#0B64DD"/>
<stop offset="0.83" stop-color="#731DCF"/>
</linearGradient>
</defs>
</svg>
