<svg width="32" height="32" viewBox="0 0 32 32" fill="none" xmlns="http://www.w3.org/2000/svg">
<path d="M8 14C8 9.58172 11.5817 6 16 6C19.7427 6 22.8816 8.5698 23.7559 12.041C27.2663 12.418 30 15.3894 30 19C30 22.866 26.866 26 23 26H8C4.68629 26 2 23.3137 2 20C2 16.6863 4.68629 14 8 14ZM10 14C10 14.3275 10.026 14.6489 10.0762 14.9609L10.3105 16.4141L8.87305 16.0957C8.59322 16.0336 8.30059 16 8 16C5.79086 16 4 17.7909 4 20C4 22.2091 5.79086 24 8 24H23C25.7614 24 28 21.7614 28 19C28 16.2386 25.7614 14 23 14H22.9414L22.4375 14.0312C21.2817 14.1604 20.2461 14.6836 19.4648 15.4648L18.0508 14.0508C19.0253 13.0763 20.2876 12.3886 21.6992 12.123C20.9114 9.72907 18.6576 8 16 8C12.6863 8 10 10.6863 10 14Z" fill="#0B64DD"/>
</svg>
