<svg width="32" height="32" viewBox="0 0 32 32" fill="none" xmlns="http://www.w3.org/2000/svg">
<path fill-rule="evenodd" clip-rule="evenodd" d="M27 2C27.5501 1.99956 28.0904 2.14998 28.5605 2.43555C29.0306 2.72109 29.4128 3.13086 29.666 3.61914C29.9192 4.10752 30.0337 4.65627 29.9961 5.20508C29.9585 5.75372 29.7704 6.28128 29.4531 6.73047C29.1357 7.17975 28.7 7.53316 28.1953 7.75195C27.6908 7.97055 27.1364 8.04607 26.5918 7.9707C26.047 7.89526 25.5336 7.67179 25.1074 7.32422C24.6812 6.97649 24.3572 6.51864 24.1738 6H23C22.2045 6.00013 21.4414 6.31641 20.8789 6.87891C20.3164 7.44149 20 8.20446 20 9V12C19.9991 13.083 19.6455 14.1362 18.9922 15H19L18.9043 15.1191C18.6938 15.3814 18.4586 15.6235 18.2012 15.8398C18.1812 15.8598 18.1587 15.8746 18.1367 15.8906C18.0447 15.9659 17.9487 16.0369 17.8516 16.1055L17.7656 16.166C17.6558 16.2379 17.5455 16.3052 17.4297 16.3711L17.3359 16.4199C17.2221 16.4799 17.1062 16.5399 16.9863 16.5898C16.9504 16.6058 16.9149 16.6188 16.877 16.6328C16.2815 16.8762 15.6433 17.0004 15 17H13.9922C14.6222 17.836 15 18.872 15 20V23C15 23.7955 15.3164 24.5585 15.8789 25.1211C16.4414 25.6836 17.2045 25.9999 18 26H24.1738C24.4097 25.3329 24.8741 24.7702 25.4844 24.4121C26.0946 24.0541 26.8124 23.9234 27.5098 24.043C28.2073 24.1626 28.8407 24.5253 29.2969 25.0664C29.7529 25.6074 30.002 26.2924 30.002 27C30.002 27.7076 29.7529 28.3926 29.2969 28.9336C28.8407 29.4747 28.2073 29.8374 27.5098 29.957C26.8124 30.0766 26.0947 29.9459 25.4844 29.5879C24.8741 29.2298 24.4097 28.6671 24.1738 28H18C16.6741 27.9999 15.4024 27.4727 14.4648 26.5352C13.5273 25.5975 13 24.326 13 23V20C13 19.2044 12.6837 18.4415 12.1211 17.8789C11.5585 17.3164 10.7955 17 10 17H7.82617C7.59027 17.6672 7.12601 18.2298 6.51562 18.5879C5.9053 18.9458 5.18758 19.0767 4.49023 18.957C3.79305 18.8373 3.1611 18.4744 2.70508 17.9336C2.24894 17.3925 1.99805 16.7077 1.99805 16C1.99805 15.2923 2.24894 14.6075 2.70508 14.0664C3.1611 13.5256 3.79305 13.1627 4.49023 13.043C5.18758 12.9233 5.9053 13.0542 6.51562 13.4121C7.12601 13.7702 7.59027 14.3328 7.82617 15H15C15.7955 15 16.5585 14.6836 17.1211 14.1211C17.6837 13.5585 18 12.7957 18 12V9C18 7.67403 18.5273 6.4025 19.4648 5.46484C20.4024 4.52727 21.6741 4.00013 23 4H24.1738C24.3805 3.41549 24.7635 2.90893 25.2695 2.55078C25.7755 2.19273 26.3802 2.0006 27 2ZM27 26C26.735 26.0001 26.4804 26.1055 26.293 26.293C26.1056 26.4805 26 26.7349 26 27C26 27.2651 26.1056 27.5195 26.293 27.707C26.4804 27.8945 26.735 27.9999 27 28C27.2651 28 27.5195 27.8944 27.707 27.707C27.8946 27.5195 28 27.2652 28 27C28 26.7348 27.8946 26.4805 27.707 26.293C27.5195 26.1056 27.2651 26 27 26ZM5 15C4.73495 15.0001 4.48039 15.1055 4.29297 15.293C4.10558 15.4805 4 15.7349 4 16C4 16.2651 4.10558 16.5195 4.29297 16.707C4.48039 16.8945 4.73495 16.9999 5 17C5.26511 17 5.51952 16.8944 5.70703 16.707C5.89457 16.5195 6 16.2652 6 16C6 15.7348 5.89457 15.4805 5.70703 15.293C5.51952 15.1056 5.2651 15 5 15ZM27 4C26.735 4.00013 26.4804 4.10554 26.293 4.29297C26.1056 4.48048 26 4.7349 26 5C26 5.26511 26.1056 5.51952 26.293 5.70703C26.4804 5.89446 26.735 5.99988 27 6C27.2651 6 27.5195 5.89442 27.707 5.70703C27.8946 5.5195 28 5.26522 28 5C28 4.73479 27.8946 4.48051 27.707 4.29297C27.5195 4.10558 27.2651 4 27 4Z" fill="#0B64DD"/>
<path fill-rule="evenodd" clip-rule="evenodd" d="M27 13C27.5501 12.9996 28.0904 13.15 28.5605 13.4355C29.0306 13.7211 29.4128 14.1309 29.666 14.6191C29.9192 15.1075 30.0337 15.6563 29.9961 16.2051C29.9585 16.7537 29.7704 17.2813 29.4531 17.7305C29.1357 18.1798 28.7 18.5332 28.1953 18.752C27.6908 18.9705 27.1364 19.0461 26.5918 18.9707C26.047 18.8953 25.5336 18.6718 25.1074 18.3242C24.6812 17.9765 24.3572 17.5186 24.1738 17H19.8965C20.4825 16.426 20.9682 15.75 21.3242 15H24.1738C24.3805 14.4155 24.7635 13.9089 25.2695 13.5508C25.7755 13.1927 26.3802 13.0006 27 13ZM27 15C26.735 15.0001 26.4804 15.1055 26.293 15.293C26.1056 15.4805 26 15.7349 26 16C26 16.2651 26.1056 16.5195 26.293 16.707C26.4804 16.8945 26.735 16.9999 27 17C27.2651 17 27.5195 16.8944 27.707 16.707C27.8946 16.5195 28 16.2652 28 16C28 15.7348 27.8946 15.4805 27.707 15.293C27.5195 15.1056 27.2651 15 27 15Z" fill="#0B64DD"/>
</svg>
