<svg width="32" height="32" viewBox="0 0 32 32" fill="none" xmlns="http://www.w3.org/2000/svg">
<path fill-rule="evenodd" clip-rule="evenodd" d="M12 22C13.1046 22 14 22.8954 14 24V26L13.9902 26.2051C13.8876 27.2133 13.0354 28 12 28H4C2.89543 28 2 27.1046 2 26V24C2 22.8954 2.89543 22 4 22H12ZM4 26H12V24H4V26Z" fill="#0B64DD"/>
<path fill-rule="evenodd" clip-rule="evenodd" d="M28 14C29.1046 14 30 14.8954 30 16V26C30 27.1046 29.1046 28 28 28H18C16.8954 28 16 27.1046 16 26V16C16 14.8954 16.8954 14 18 14H28ZM18 26H28V16H18V26Z" fill="#0B64DD"/>
<path fill-rule="evenodd" clip-rule="evenodd" d="M12 14C13.1046 14 14 14.8954 14 16V18L13.9902 18.2051C13.8876 19.2133 13.0354 20 12 20H4C2.89543 20 2 19.1046 2 18V16C2 14.8954 2.89543 14 4 14H12ZM4 18H12V16H4V18Z" fill="#0B64DD"/>
<path fill-rule="evenodd" clip-rule="evenodd" d="M28 4C29.0354 4 29.8876 4.78666 29.9902 5.79492L30 6V10C30 11.1046 29.1046 12 28 12H4C2.89543 12 2 11.1046 2 10V6C2 4.89543 2.89543 4 4 4H28ZM4 10H28V6H4V10Z" fill="#0B64DD"/>
</svg>
