<svg width="32" height="32" viewBox="0 0 32 32" fill="none" xmlns="http://www.w3.org/2000/svg">
<path d="M10 10H6V8H10V10Z" fill="#0B64DD"/>
<path d="M10 14H6V12H10V14Z" fill="#0B64DD"/>
<path d="M8 22C9.10457 22 10 21.1046 10 20C10 18.8954 9.10457 18 8 18C6.89543 18 6 18.8954 6 20C6 21.1046 6.89543 22 8 22Z" fill="#0B64DD"/>
<path d="M18 8V14H16V8H18Z" fill="#0B64DD"/>
<path d="M26 14V8H24V14H26Z" fill="#0B64DD"/>
<path fill-rule="evenodd" clip-rule="evenodd" d="M2 6C2 4.89543 2.89543 4 4 4H28C29.1046 4 30 4.89543 30 6V24C30 25.1046 29.1046 26 28 26H26V28H24V26H8V28H6V26H4C2.89543 26 2 25.1046 2 24V6ZM12 6H4V24H12V6ZM14 6V24H20V6H14ZM22 6V24H28V6H22Z" fill="#0B64DD"/>
</svg>
